<svg width="36" height="29" viewBox="0 0 36 29" fill="none" xmlns="http://www.w3.org/2000/svg">
<path d="M8.83333 23.8334C8.83333 24.8058 8.44703 25.7385 7.75939 26.4261C7.07176 27.1137 6.13913 27.5 5.16667 27.5C4.19421 27.5 3.26158 27.1137 2.57394 26.4261C1.88631 25.7385 1.5 24.8058 1.5 23.8334C1.5 22.8609 1.88631 21.9283 2.57394 21.2407C3.26158 20.553 4.19421 20.1667 5.16667 20.1667C6.13913 20.1667 7.07176 20.553 7.75939 21.2407C8.44703 21.9283 8.83333 22.8609 8.83333 23.8334ZM8.83333 23.8334H14.3333C15.3058 23.8334 16.2384 23.4471 16.9261 22.7594C17.6137 22.0718 18 21.1392 18 20.1667V5.50004C18 4.52758 18.3863 3.59495 19.0739 2.90732C19.7616 2.21968 20.6942 1.83337 21.6667 1.83337H34.5" stroke="black" stroke-width="2" stroke-linecap="round" stroke-linejoin="round"/>
</svg>
