<svg width="38" height="36" viewBox="0 0 38 36" fill="none" xmlns="http://www.w3.org/2000/svg">
<path d="M28.2766 20.8333C24.8666 20.8333 22.0066 23.2716 21.2733 26.5166C19.5316 25.765 17.9366 25.9666 16.7266 26.4983C15.975 23.235 13.115 20.8333 9.72329 20.8333C5.74496 20.8333 2.49996 24.115 2.49996 28.1666C2.49996 32.2183 5.74496 35.5 9.72329 35.5C13.5 35.5 16.58 32.53 16.8733 28.7533C17.4966 28.3133 19.1283 27.4883 21.1266 28.79C21.4566 32.5483 24.5 35.5 28.2766 35.5C32.255 35.5 35.5 32.2183 35.5 28.1666C35.5 24.115 32.255 20.8333 28.2766 20.8333ZM9.72329 33.41C6.86329 33.41 4.57163 31.0633 4.57163 28.1666C4.57163 25.27 6.88163 22.9233 9.72329 22.9233C12.5833 22.9233 14.875 25.27 14.875 28.1666C14.875 31.0633 12.5833 33.41 9.72329 33.41ZM28.2766 33.41C25.4166 33.41 23.125 31.0633 23.125 28.1666C23.125 25.27 25.4166 22.9233 28.2766 22.9233C31.1366 22.9233 33.4466 25.27 33.4466 28.1666C33.4466 31.0633 31.1183 33.41 28.2766 33.41ZM37.3333 16.25H0.666626V19H37.3333V16.25ZM25.4716 1.82164C25.0683 0.923302 24.0416 0.446636 23.07 0.758302L19 2.11497L14.9116 0.758302L14.82 0.739969C13.8483 0.464969 12.8216 0.978302 12.455 1.9133L7.99996 13.5H30L25.5266 1.9133L25.4716 1.82164Z" fill="black"/>
</svg>
